<svg version="1.2" xmlns="http://www.w3.org/2000/svg" viewBox="0 0 24 24" width="24" height="24">
	<title>login-svg</title>
	<defs>
		<clipPath clipPathUnits="userSpaceOnUse" id="cp1">
			<path d="m0 0h24v24h-24z"/>
		</clipPath>
	</defs>
	<style>
		.s0 { fill: none;stroke: #ffffff;stroke-linecap: round;stroke-linejoin: round;stroke-width: 1.4 } 
	</style>
	<g id="Clip-Path" clip-path="url(#cp1)">
		<g id="Layer">
			<path id="Layer" fill-rule="evenodd" class="s0" d="m12 21c5 0 9-4 9-9 0-5-4-9-9-9-5 0-9 4-9 9 0 5 4 9 9 9z"/>
			<path id="Layer" fill-rule="evenodd" class="s0" d="m12 15c2.1 0 3.8-1.7 3.8-3.8 0-2-1.7-3.7-3.8-3.7-2.1 0-3.8 1.7-3.8 3.8 0 2 1.7 3.7 3.8 3.7z"/>
			<path id="Layer" fill-rule="evenodd" class="s0" d="m6 18.7c0.5-1.1 1.4-2.1 2.5-2.7 1-0.7 2.3-1 3.5-1 1.2 0 2.5 0.3 3.5 1 1.1 0.6 2 1.6 2.5 2.7"/>
		</g>
	</g>
</svg>